<svg version="1" xmlns="http://www.w3.org/2000/svg" width="768" height="768" viewBox="0 0 576.000000 576.000000"><path d="M0 288v288h576V0H0v288zM322 78.5c59.1 9 102.1 41.8 115.5 88.1 2.8 9.6 5.5 24.7 5.5 30.6v3.8H321.3l-.6-5.7c-.8-7.7-5.7-17.3-11.1-21.8-14.9-12.2-39.2-11.9-50 .6-6.4 7.5-8.1 21.9-3.7 31.1 6.5 13.5 21 21.7 67.6 38.3 35.2 12.5 60 23.6 76.2 34.1 15 9.7 32.2 28.3 39.3 42.5 13 25.6 12.4 66.4-1.4 95.5-18.5 39.1-54.1 64.3-102.7 72.9-21.9 3.9-55.8 3.9-78.5 0-60.5-10.4-102.1-42.2-117.2-89.5-3.3-10.3-6.2-25.8-6.2-32.7V362h118.9l.6 3.7c.4 2.1 1.5 6.8 2.6 10.4 5.3 18.4 19.9 27.8 41.4 26.7 11.5-.6 19.5-3.9 25.8-10.7 5.4-5.7 7.1-10.5 7-19.3 0-5.6-.6-8-3.2-13.3-6.4-13-18.6-19.5-70.4-37.1-60.4-20.5-80.3-31.8-101.6-57.4-13.7-16.5-20.1-37.3-20.1-65.6 0-32.7 9.4-57.4 30.5-80.2 19.6-21.2 54-37 89.6-41.1 5.2-.6 11-1.3 12.9-1.5 7.7-.9 45 .4 55 1.9z"/></svg>